<svg xmlns="http://www.w3.org/2000/svg" viewBox="0 0 68 85" x="0px" y="0px"><path fill="#000000" fill-rule="evenodd" d="M581.626275,580 L585,580 C586.040177,580 586.906709,580.797325 586.993092,581.833909 L587.993092,593.833909 C588.084821,594.934663 587.266845,595.901362 586.166091,595.993092 C585.065337,596.084821 584.098638,595.266845 584.006908,594.166091 L583.159734,584 L556.840266,584 L555.993092,594.166091 C555.901362,595.266845 554.934663,596.084821 553.833909,595.993092 C552.733155,595.901362 551.915179,594.934663 552.006908,593.833909 L553.006908,581.833909 C553.093291,580.797325 553.959823,580 555,580 L558.373725,580 L563.042039,557.592091 C563.235256,556.664653 564.052649,556 565,556 L568,556 L568,551.747965 C564.549546,550.859879 562,547.727679 562,544 C562,539.581722 565.581722,536 570,536 C574.418278,536 578,539.581722 578,544 C578,547.727679 575.450454,550.859879 572,551.747965 L572,556 L575,556 C575.947351,556 576.764744,556.664653 576.957961,557.592091 L581.626275,580 Z M562.459608,580 L577.540392,580 L573.373725,560 L566.626275,560 L562.459608,580 Z M570,548 C572.209139,548 574,546.209139 574,544 C574,541.790861 572.209139,540 570,540 C567.790861,540 566,541.790861 566,544 C566,546.209139 567.790861,548 570,548 Z M538,604 C536.895431,604 536,603.104569 536,602 C536,600.895431 536.895431,600 538,600 C539.001027,600 539.427392,599.744181 540.585786,598.585786 C542.427392,596.744181 543.667693,596 546,596 C548.332307,596 549.572608,596.744181 551.414214,598.585786 C552.572608,599.744181 552.998973,600 554,600 C555.001027,600 555.427392,599.744181 556.585786,598.585786 C558.427392,596.744181 559.667693,596 562,596 C564.332307,596 565.572608,596.744181 567.414214,598.585786 C568.572608,599.744181 568.998973,600 570,600 C571.001027,600 571.427392,599.744181 572.585786,598.585786 C574.427392,596.744181 575.667693,596 578,596 C580.332307,596 581.572608,596.744181 583.414214,598.585786 C584.572608,599.744181 584.998973,600 586,600 C587.001027,600 587.427392,599.744181 588.585786,598.585786 C590.427392,596.744181 591.667693,596 594,596 C596.332307,596 597.572608,596.744181 599.414214,598.585786 C600.572608,599.744181 600.998973,600 602,600 C603.104569,600 604,600.895431 604,602 C604,603.104569 603.104569,604 602,604 C599.667693,604 598.427392,603.255819 596.585786,601.414214 C595.427392,600.255819 595.001027,600 594,600 C592.998973,600 592.572608,600.255819 591.414214,601.414214 C589.572608,603.255819 588.332307,604 586,604 C583.667693,604 582.427392,603.255819 580.585786,601.414214 C579.427392,600.255819 579.001027,600 578,600 C576.998973,600 576.572608,600.255819 575.414214,601.414214 C573.572608,603.255819 572.332307,604 570,604 C567.667693,604 566.427392,603.255819 564.585786,601.414214 C563.427392,600.255819 563.001027,600 562,600 C560.998973,600 560.572608,600.255819 559.414214,601.414214 C557.572608,603.255819 556.332307,604 554,604 C551.667693,604 550.427392,603.255819 548.585786,601.414214 C547.427392,600.255819 547.001027,600 546,600 C544.998973,600 544.572608,600.255819 543.414214,601.414214 C541.572608,603.255819 540.332307,604 538,604 Z" transform="translate(-536 -536)"/><text x="0" y="83" fill="#000000" font-size="5px" font-weight="bold" font-family="'Helvetica Neue', Helvetica, Arial-Unicode, Arial, Sans-serif">Created by Andrejs Kirma</text><text x="0" y="88" fill="#000000" font-size="5px" font-weight="bold" font-family="'Helvetica Neue', Helvetica, Arial-Unicode, Arial, Sans-serif">from the Noun Project</text></svg>