<?xml version="1.0" encoding="UTF-8" standalone="no"?><!DOCTYPE svg PUBLIC "-//W3C//DTD SVG 1.1//EN" "http://www.w3.org/Graphics/SVG/1.1/DTD/svg11.dtd"><svg width="100%" height="100%" viewBox="0 0 68 85" version="1.1" xmlns="http://www.w3.org/2000/svg" xmlns:xlink="http://www.w3.org/1999/xlink" xml:space="preserve" xmlns:serif="http://www.serif.com/" style="fill-rule:evenodd;clip-rule:evenodd;stroke-linejoin:round;stroke-miterlimit:2;"><path d="M45.626,44l3.374,0c1.04,0 1.907,0.797 1.993,1.834l1,12c0.092,1.101 -0.726,2.067 -1.827,2.159c-1.101,0.092 -2.067,-0.726 -2.159,-1.827l-0.847,-10.166l-26.32,0l-0.847,10.166c-0.092,1.101 -1.058,1.919 -2.159,1.827c-1.101,-0.092 -1.919,-1.058 -1.827,-2.159l1,-12c0.086,-1.037 0.953,-1.834 1.993,-1.834l3.374,0l4.668,-22.408c0.193,-0.927 1.011,-1.592 1.958,-1.592l3,0l0,-4.252c-3.45,-0.888 -6,-4.02 -6,-7.748c0,-4.418 3.582,-8 8,-8c4.418,0 8,3.582 8,8c0,3.728 -2.55,6.86 -6,7.748l0,4.252l3,0c0.947,0 1.765,0.665 1.958,1.592l4.668,22.408Zm-19.166,0l15.08,0l-4.166,-20l-6.748,0l-4.166,20Zm7.54,-32c2.209,0 4,-1.791 4,-4c0,-2.209 -1.791,-4 -4,-4c-2.209,0 -4,1.791 -4,4c0,2.209 1.791,4 4,4Zm-32,56c-1.105,0 -2,-0.895 -2,-2c0,-1.105 0.895,-2 2,-2c1.001,0 1.427,-0.256 2.586,-1.414c1.841,-1.842 3.082,-2.586 5.414,-2.586c2.332,0 3.573,0.744 5.414,2.586c1.159,1.158 1.585,1.414 2.586,1.414c1.001,0 1.427,-0.256 2.586,-1.414c1.841,-1.842 3.082,-2.586 5.414,-2.586c2.332,0 3.573,0.744 5.414,2.586c1.159,1.158 1.585,1.414 2.586,1.414c1.001,0 1.427,-0.256 2.586,-1.414c1.841,-1.842 3.082,-2.586 5.414,-2.586c2.332,0 3.573,0.744 5.414,2.586c1.159,1.158 1.585,1.414 2.586,1.414c1.001,0 1.427,-0.256 2.586,-1.414c1.841,-1.842 3.082,-2.586 5.414,-2.586c2.332,0 3.573,0.744 5.414,2.586c1.159,1.158 1.585,1.414 2.586,1.414c1.105,0 2,0.895 2,2c0,1.105 -0.895,2 -2,2c-2.332,0 -3.573,-0.744 -5.414,-2.586c-1.159,-1.158 -1.585,-1.414 -2.586,-1.414c-1.001,0 -1.427,0.256 -2.586,1.414c-1.841,1.842 -3.082,2.586 -5.414,2.586c-2.332,0 -3.573,-0.744 -5.414,-2.586c-1.159,-1.158 -1.585,-1.414 -2.586,-1.414c-1.001,0 -1.427,0.256 -2.586,1.414c-1.841,1.842 -3.082,2.586 -5.414,2.586c-2.332,0 -3.573,-0.744 -5.414,-2.586c-1.159,-1.158 -1.585,-1.414 -2.586,-1.414c-1.001,0 -1.427,0.256 -2.586,1.414c-1.841,1.842 -3.082,2.586 -5.414,2.586c-2.332,0 -3.573,-0.744 -5.414,-2.586c-1.159,-1.158 -1.585,-1.414 -2.586,-1.414c-1.001,0 -1.427,0.256 -2.586,1.414c-1.841,1.842 -3.082,2.586 -5.414,2.586Z" style="fill:#555;"/></svg>