<svg xmlns="http://www.w3.org/2000/svg" xmlns:xlink="http://www.w3.org/1999/xlink" version="1.1" x="0px" y="0px" viewBox="0 0 100 125" style="enable-background:new 0 0 100 100;" xml:space="preserve"><g><path d="M28.33,78.38C33.89,80.07,41.23,81,49,81s15.11-0.93,20.67-2.62C76.52,76.3,80,73.31,80,69.5V29h-0.03   c-0.29-3.57-3.75-6.39-10.3-8.38C64.11,18.93,56.77,18,49,18s-15.11,0.93-20.67,2.62c-6.55,1.99-10.01,4.81-10.3,8.38H18v40.5   C18,73.31,21.48,76.3,28.33,78.38z M49,24c15.97,0,24.19,3.86,24.98,5.5C73.19,31.14,64.97,35,49,35s-24.19-3.86-24.98-5.5   C24.81,27.86,33.03,24,49,24z M24,36.73c1.25,0.6,2.69,1.15,4.33,1.65C33.89,40.07,41.23,41,49,41s15.11-0.93,20.67-2.62   c1.64-0.5,3.08-1.05,4.33-1.65l0,12.69C73.44,51.02,65.22,55,49,55c-16.24,0-24.47-3.99-25-5.5V36.73z M24,56.73   c1.25,0.6,2.69,1.15,4.33,1.65C33.89,60.07,41.23,61,49,61s15.11-0.93,20.67-2.62c1.64-0.5,3.08-1.05,4.34-1.65l0,12.69   C73.47,71.01,65.24,75,49,75s-24.47-3.99-25-5.5V56.73z"/><path d="M67.95,49c1.66-0.01,2.99-1.37,2.98-3.02S69.56,42.99,67.9,43c-1.66,0.01-2.99,1.37-2.98,3.02   C64.94,47.68,66.29,49.01,67.95,49z"/><path d="M68.1,69c1.66-0.01,2.99-1.37,2.98-3.02c-0.01-1.66-1.37-2.99-3.02-2.98c-1.66,0.01-2.99,1.37-2.98,3.02   S66.44,69.01,68.1,69z"/></g><text x="0" y="115" fill="#000000" font-size="5px" font-weight="bold" font-family="'Helvetica Neue', Helvetica, Arial-Unicode, Arial, Sans-serif">Created by Icon Master</text><text x="0" y="120" fill="#000000" font-size="5px" font-weight="bold" font-family="'Helvetica Neue', Helvetica, Arial-Unicode, Arial, Sans-serif">from the Noun Project</text></svg>