<?xml version="1.0" encoding="UTF-8" standalone="no"?><!DOCTYPE svg PUBLIC "-//W3C//DTD SVG 1.1//EN" "http://www.w3.org/Graphics/SVG/1.1/DTD/svg11.dtd"><svg width="100%" height="100%" viewBox="0 0 100 125" version="1.1" xmlns="http://www.w3.org/2000/svg" xmlns:xlink="http://www.w3.org/1999/xlink" xml:space="preserve" xmlns:serif="http://www.serif.com/" style="fill-rule:evenodd;clip-rule:evenodd;stroke-linejoin:round;stroke-miterlimit:2;"><g><path d="M28.33,78.38c5.56,1.69 12.9,2.62 20.67,2.62c7.77,0 15.11,-0.93 20.67,-2.62c6.85,-2.08 10.33,-5.07 10.33,-8.88l0,-40.5l-0.03,0c-0.29,-3.57 -3.75,-6.39 -10.3,-8.38c-5.56,-1.69 -12.9,-2.62 -20.67,-2.62c-7.77,0 -15.11,0.93 -20.67,2.62c-6.55,1.99 -10.01,4.81 -10.3,8.38l-0.03,0l0,40.5c0,3.81 3.48,6.8 10.33,8.88Zm20.67,-54.38c15.97,0 24.19,3.86 24.98,5.5c-0.79,1.64 -9.01,5.5 -24.98,5.5c-15.97,0 -24.19,-3.86 -24.98,-5.5c0.79,-1.64 9.01,-5.5 24.98,-5.5Zm-25,12.73c1.25,0.6 2.69,1.15 4.33,1.65c5.56,1.69 12.9,2.62 20.67,2.62c7.77,0 15.11,-0.93 20.67,-2.62c1.64,-0.5 3.08,-1.05 4.33,-1.65l0,12.69c-0.56,1.6 -8.78,5.58 -25,5.58c-16.24,0 -24.47,-3.99 -25,-5.5l0,-12.77Zm0,20c1.25,0.6 2.69,1.15 4.33,1.65c5.56,1.69 12.9,2.62 20.67,2.62c7.77,0 15.11,-0.93 20.67,-2.62c1.64,-0.5 3.08,-1.05 4.34,-1.65l0,12.69c-0.54,1.59 -8.77,5.58 -25.01,5.58c-16.24,0 -24.47,-3.99 -25,-5.5l0,-12.77Z" style="fill:#555;fill-rule:nonzero;"/><path d="M67.95,49c1.66,-0.01 2.99,-1.37 2.98,-3.02c-0.01,-1.65 -1.37,-2.99 -3.03,-2.98c-1.66,0.01 -2.99,1.37 -2.98,3.02c0.02,1.66 1.37,2.99 3.03,2.98Z" style="fill:#555;fill-rule:nonzero;"/><path d="M68.1,69c1.66,-0.01 2.99,-1.37 2.98,-3.02c-0.01,-1.66 -1.37,-2.99 -3.02,-2.98c-1.66,0.01 -2.99,1.37 -2.98,3.02c0.01,1.65 1.36,2.99 3.02,2.98Z" style="fill:#555;fill-rule:nonzero;"/></g></svg>