<svg xmlns="http://www.w3.org/2000/svg" viewBox="0 0 32 40" x="0px" y="0px"><g><path d="M28.4,9.32a4,4,0,0,0-4-4H22v-1a1,1,0,0,0-2,0v1H12v-1a1,1,0,0,0-2,0v1H7.61a4,4,0,0,0-4,4v13a1,1,0,0,0,2,0v-9H26.4V25.7a1,1,0,0,1-1,1H6.6a1,1,0,0,1-1-1,1,1,0,0,0-2,0,3,3,0,0,0,3,3H25.4a3,3,0,0,0,3-3S28.39,9.34,28.4,9.32Zm-22.8,2v-2a2,2,0,0,1,2-2H10v1a1,1,0,0,0,2,0v-1h8v1a1,1,0,0,0,2,0v-1h2.39a2,2,0,0,1,2,2v2ZM16,15.81a1.5,1.5,0,0,1,0,3A1.5,1.5,0,0,1,16,15.81Zm0,6a1.5,1.5,0,0,1,0,3A1.5,1.5,0,0,1,16,21.81Zm6-6a1.5,1.5,0,0,1,0,3A1.5,1.5,0,0,1,22,15.81Zm0,6a1.5,1.5,0,0,1,0,3A1.5,1.5,0,0,1,22,21.81Zm-12,0a1.5,1.5,0,0,1,0,3A1.5,1.5,0,0,1,10,21.81Zm0-6a1.5,1.5,0,0,1,0,3A1.5,1.5,0,0,1,10,15.81Z"/></g><text x="0" y="47" fill="#000000" font-size="5px" font-weight="bold" font-family="'Helvetica Neue', Helvetica, Arial-Unicode, Arial, Sans-serif">Created by Zky Icon</text><text x="0" y="52" fill="#000000" font-size="5px" font-weight="bold" font-family="'Helvetica Neue', Helvetica, Arial-Unicode, Arial, Sans-serif">from the Noun Project</text></svg>