<?xml version="1.0" encoding="UTF-8" standalone="no"?><!DOCTYPE svg PUBLIC "-//W3C//DTD SVG 1.1//EN" "http://www.w3.org/Graphics/SVG/1.1/DTD/svg11.dtd"><svg width="100%" height="100%" viewBox="0 0 32 40" version="1.1" xmlns="http://www.w3.org/2000/svg" xmlns:xlink="http://www.w3.org/1999/xlink" xml:space="preserve" xmlns:serif="http://www.serif.com/" style="fill-rule:evenodd;clip-rule:evenodd;stroke-linejoin:round;stroke-miterlimit:2;"><g><path d="M28.4,9.32c-0,-2.194 -1.806,-4 -4,-4l-2.4,0l-0,-1c-0,-0.549 -0.451,-1 -1,-1c-0.549,0 -1,0.451 -1,1l-0,1l-8,0l-0,-1c-0,-0.549 -0.451,-1 -1,-1c-0.549,0 -1,0.451 -1,1l-0,1l-2.39,0c-2.194,0 -4,1.806 -4,4l-0,13c-0,0.549 0.451,1 1,1c0.549,0 1,-0.451 1,-1l-0,-9l20.79,0l-0,12.38c-0,0.549 -0.451,1 -1,1l-18.8,-0c-0.549,-0 -1,-0.451 -1,-1c-0,-0.549 -0.451,-1 -1,-1c-0.549,-0 -1,0.451 -1,1c-0,1.646 1.354,3 3,3l18.8,-0c1.646,-0 3,-1.354 3,-3c-0,-1.646 -0.01,-16.36 -0,-16.38Zm-22.8,2l-0,-2c-0,-1.097 0.903,-2 2,-2l2.4,-0l-0,1c-0,0.549 0.451,1 1,1c0.549,-0 1,-0.451 1,-1l-0,-1l8,-0l0,1c0,0.549 0.451,1 1,1c0.549,-0 1,-0.451 1,-1l0,-1l2.39,-0c1.097,-0 2,0.903 2,2l0,2l-20.79,-0Zm10.4,4.49c0.823,0 1.5,0.677 1.5,1.5c-0,0.823 -0.677,1.5 -1.5,1.5c-0.823,-0 -1.5,-0.677 -1.5,-1.5c0,-0.823 0.677,-1.5 1.5,-1.5Zm0,6c0.823,0 1.5,0.677 1.5,1.5c0,0.823 -0.677,1.5 -1.5,1.5c-0.823,0 -1.5,-0.677 -1.5,-1.5c-0,-0.823 0.677,-1.5 1.5,-1.5Zm6,-6c0.823,0 1.5,0.677 1.5,1.5c0,0.823 -0.677,1.5 -1.5,1.5c-0.823,-0 -1.5,-0.677 -1.5,-1.5c0,-0.823 0.677,-1.5 1.5,-1.5Zm0,6c0.823,0 1.5,0.677 1.5,1.5c0,0.823 -0.677,1.5 -1.5,1.5c-0.823,0 -1.5,-0.677 -1.5,-1.5c0,-0.823 0.677,-1.5 1.5,-1.5Zm-12,0c0.823,0 1.5,0.677 1.5,1.5c0,0.823 -0.677,1.5 -1.5,1.5c-0.823,0 -1.5,-0.677 -1.5,-1.5c-0,-0.823 0.677,-1.5 1.5,-1.5Zm0,-6c0.823,0 1.5,0.677 1.5,1.5c0,0.823 -0.677,1.5 -1.5,1.5c-0.823,-0 -1.5,-0.677 -1.5,-1.5c0,-0.823 0.677,-1.5 1.5,-1.5Z" style="fill:#555;fill-rule:nonzero;"/></g></svg>