<?xml version="1.0" encoding="UTF-8" standalone="no"?><!DOCTYPE svg PUBLIC "-//W3C//DTD SVG 1.1//EN" "http://www.w3.org/Graphics/SVG/1.1/DTD/svg11.dtd"><svg width="100%" height="100%" viewBox="0 0 8 10" version="1.1" xmlns="http://www.w3.org/2000/svg" xmlns:xlink="http://www.w3.org/1999/xlink" xml:space="preserve" xmlns:serif="http://www.serif.com/" style="fill-rule:evenodd;clip-rule:evenodd;stroke-linejoin:round;stroke-miterlimit:2;"><g><path d="M0.991,1.798c-0.014,0 -0.027,0.002 -0.04,0.004l-0.683,0c-0.01,-0 -0.019,-0 -0.028,0c-0.137,0.01 -0.245,0.126 -0.245,0.264c-0,0.146 0.119,0.265 0.265,0.265c0.002,0 0.005,0 0.008,0l0.463,0l-0,1.059c-0,0.144 0.119,0.263 0.263,0.264l1.422,-0l0,0.24c0,0.542 0.239,1.027 0.616,1.361l-0.588,1.02c-0.022,0.039 -0.034,0.083 -0.034,0.128c0,0.146 0.12,0.266 0.266,0.266c0.092,-0 0.179,-0.049 0.227,-0.129l0.574,-0.995c0.231,0.106 0.487,0.167 0.757,0.167c0.272,0 0.53,-0.062 0.761,-0.169l0.576,0.997c0.048,0.08 0.134,0.129 0.227,0.129c0.145,-0 0.265,-0.12 0.265,-0.266c-0,-0.045 -0.012,-0.089 -0.034,-0.128l-0.59,-1.023c0.375,-0.333 0.614,-0.818 0.614,-1.358l-0,-0.24l1.42,-0c0,-0 0,-0 0.001,-0c0.145,-0 0.264,-0.119 0.264,-0.264l0,-1.059l0.463,0c0.002,0 0.004,0 0.006,0c0.146,0 0.265,-0.119 0.265,-0.264c-0,-0.145 -0.119,-0.265 -0.265,-0.265c-0.002,0 -0.004,0 -0.006,0l-0.679,0c-0.018,-0.003 -0.035,-0.004 -0.053,-0.004c-0.013,0.001 -0.027,0.002 -0.04,0.004l-0.683,0c-0.009,-0 -0.018,-0 -0.027,0c-0.138,0.01 -0.246,0.126 -0.246,0.265c0,0.145 0.12,0.265 0.265,0.265c0.003,-0 0.006,-0.001 0.008,-0.001l0.463,0l0,0.793l-1.156,0l-0,-0.552c0,-0.145 -0.119,-0.265 -0.264,-0.266l-3.109,0c-0.145,0.001 -0.264,0.121 -0.264,0.266l0,0.552l-1.156,0l-0,-0.793l0.463,0c0.002,0 0.004,0 0.006,0c0.145,0 0.264,-0.119 0.264,-0.264c0,-0.145 -0.119,-0.265 -0.264,-0.265c-0.002,0 -0.004,0 -0.006,0l-0.68,0c-0.017,-0.003 -0.035,-0.004 -0.052,-0.004l-0,0Zm3.245,2.21c0.214,0 0.389,0.176 0.389,0.389c-0,-0 -0,-0 -0,-0c-0,0.213 -0.175,0.389 -0.389,0.389c-0.213,-0 -0.388,-0.176 -0.388,-0.389c-0,-0 -0,-0 -0,-0c-0,-0.213 0.175,-0.389 0.388,-0.389Z" style="fill:#555;fill-rule:nonzero;"/></g></svg>