<svg xmlns:dc="http://purl.org/dc/elements/1.1/" xmlns:cc="http://creativecommons.org/ns#" xmlns:rdf="http://www.w3.org/1999/02/22-rdf-syntax-ns#" xmlns:svg="http://www.w3.org/2000/svg" xmlns="http://www.w3.org/2000/svg" xmlns:sodipodi="http://sodipodi.sourceforge.net/DTD/sodipodi-0.dtd" xmlns:inkscape="http://www.inkscape.org/namespaces/inkscape" viewBox="0 0 8.4666667 10.583333625" version="1.1" x="0px" y="0px"><svg:g><svg:path style="color:#000000;font-style:normal;font-variant:normal;font-weight:normal;font-stretch:normal;font-size:medium;line-height:normal;font-family:sans-serif;font-variant-ligatures:normal;font-variant-position:normal;font-variant-caps:normal;font-variant-numeric:normal;font-variant-alternates:normal;font-feature-settings:normal;text-indent:0;text-align:start;text-decoration:none;text-decoration-line:none;text-decoration-style:solid;text-decoration-color:#000000;letter-spacing:normal;word-spacing:normal;text-transform:none;writing-mode:lr-tb;direction:ltr;text-orientation:mixed;dominant-baseline:auto;baseline-shift:baseline;text-anchor:start;white-space:normal;shape-padding:0;clip-rule:nonzero;display:inline;overflow:visible;visibility:visible;opacity:1;isolation:auto;mix-blend-mode:normal;color-interpolation:sRGB;color-interpolation-filters:linearRGB;solid-color:#000000;solid-opacity:1;vector-effect:none;fill:#000000;fill-opacity:1;fill-rule:nonzero;stroke:none;stroke-width:0.5291667;stroke-linecap:round;stroke-linejoin:miter;stroke-miterlimit:4;stroke-dasharray:none;stroke-dashoffset:0;stroke-opacity:1;color-rendering:auto;image-rendering:auto;shape-rendering:auto;text-rendering:auto;enable-background:accumulate" d="m 0.99052458,1.7981065 a 0.26460984,0.26460984 0 0 0 -0.0397907,0.0041 H 0.2675718 a 0.26460984,0.26460984 0 0 0 -0.027387,0 0.2650014,0.2650014 0 0 0 0.027387,0.529166 h 0.46302083 v 1.058334 a 0.26460984,0.26460984 0 0 0 0.26355145,0.264067 H 2.4162795 v 0.239779 c 0,0.541977 0.2390986,1.027787 0.6159817,1.361157 l -0.5885947,1.020093 a 0.26515229,0.26515229 0 0 0 0.458888,0.265617 l 0.5741247,-0.995804 c 0.2309072,0.106349 0.4869577,0.167431 0.7575762,0.167431 0.2720154,0 0.5293068,-0.06159 0.761193,-0.168981 l 0.5751591,0.997387 A 0.26515229,0.26515229 0 0 0 6.0294929,6.2748355 L 5.4388318,5.2521595 c 0.3754411,-0.333306 0.613918,-0.817906 0.613918,-1.358574 V 3.6538065 H 7.4728162 A 0.26460984,0.26460984 0 0 0 7.738434,3.3897395 v -1.058334 h 0.4630208 a 0.2646485,0.2646485 0 1 0 0,-0.529166 H 7.5219096 a 0.26460984,0.26460984 0 0 0 -0.053226,-0.0041 0.26460984,0.26460984 0 0 0 -0.039275,0.0041 H 6.7462465 a 0.26460984,0.26460984 0 0 0 -0.02739,0 0.26500142,0.26500142 0 0 0 0.02739,0.529166 h 0.4630209 v 0.792718 H 6.0527498 V 2.5717025 A 0.26460979,0.26460979 0 0 0 5.7891984,2.3060855 H 2.6798283 a 0.26460979,0.26460979 0 0 0 -0.2635488,0.265617 v 0.552421 H 1.2597593 v -0.792718 h 0.4630208 a 0.2646485,0.2646485 0 1 0 0,-0.529166 H 1.0432349 a 0.26460984,0.26460984 0 0 0 -0.0527103,-0.0041 z M 4.2363217,4.0083085 A 0.38860677,0.38860677 0 0 1 4.6249285,4.3969125 0.38860677,0.38860677 0 0 1 4.2363217,4.7855215 0.38860677,0.38860677 0 0 1 3.847715,4.3969125 0.38860677,0.38860677 0 0 1 4.2363217,4.0083085 Z"/></svg:g><text x="0" y="23.4666669" fill="#000000" font-size="5px" font-weight="bold" font-family="'Helvetica Neue', Helvetica, Arial-Unicode, Arial, Sans-serif">Created by Larea</text><text x="0" y="28.4666669" fill="#000000" font-size="5px" font-weight="bold" font-family="'Helvetica Neue', Helvetica, Arial-Unicode, Arial, Sans-serif">from the Noun Project</text></svg>